#!OML:ASF F:\VICON\USERDATA\INSTALL\rory3\rory3.ASF
:FULLY-SPECIFIED
:DEGREES
286
root -3.28826 16.8379 10.2881 45.7877 69.6376 -109.832
lowerback 9.26015 1.62048 4.03878
upperback -4.56702 2.80781 0.412798
thorax -9.93384 1.1243 -2.32423
lowerneck -45.5079 -4.51735 -15.1589
upperneck 5.12359 1.15874 14.4662
head 7.55237 2.44787 7.98319
rclavicle 9.54166e-014 -6.36111e-015
rhumerus 71.1313 -34.7695 3.41509
rradius 28.0761
rwrist 25.843
rhand -34.4945 -75.1556
rfingers 7.12502
rthumb -7.65691 -1335
lclavicle 9.54166e-014 -6.36111e-015
lhumerus 53.2037 28.0814 12.9505
lradius 44.9114
lwrist 10.2121
lhand -46.6051 95.5097
lfingers 7.12502
lthumb -19.3277 -66.4502
rfemur -29.7234 -23.5747 2.88404
rtibia 68.8311
rfoot -18.4597 -28.711
rtoes 10.3857
lfemur -47.6207 27.9192 50.9872
ltibia 13.9769
lfoot -29.0139 45.492
ltoes 16.1585
287
root -3.3844 16.81 10.099 48.3232 68.4786 -106.391
lowerback 9.50781 1.64165 3.09884
upperback -4.52251 2.6765 0.0750615
thorax -10.0598 1.10308 -2.1452
lowerneck -44.04 -4.23632 -15.167
upperneck 4.35442 1.21621 14.744
head 7.55324 2.44076 8.13165
rclavicle 2.06736e-013 4.77083e-014
rhumerus 69.2493 -35.2164 5.25027
rradius 28.7032
rwrist 24.7247
rhand -34.5887 -71.8588
rfingers 7.12502
rthumb -7.74784 -1338.3
lclavicle 2.06736e-013 4.77083e-014
lhumerus 53.534 27.6466 12.8705
lradius 44.3259
lwrist 10.3083
lhand -46.5725 96.4922
lfingers 7.12502
lthumb -19.2962 -67.4296
rfemur -27.3136 -20.7899 2.25335
rtibia 66.6776
rfoot -17.9777 -29.1962
rtoes 10.4982
lfemur -45.9927 28.478 52.2049
ltibia 10.779
lfoot -30.3615 46.0304
ltoes 19.4985
288
root -3.48145 16.7784 9.90156 51.2929 67.0601 -102.362
lowerback 9.85484 1.68437 1.81861
upperback -4.47841 2.51563 -0.317872
thorax -10.2574 1.08684 -1.83182
lowerneck -42.9345 -3.96872 -14.8719
upperneck 4.21696 1.16697 14.8455
head 7.40222 2.38472 8.07038
rclavicle 6.36111e-015 -1.90833e-014
rhumerus 67.2907 -35.5051 7.90065
rradius 28.3328
rwrist 22.1499
rhand -34.2742 -69.0637
rfingers 7.12502
rthumb -7.44423 -1341.09
lclavicle 6.36111e-015 -1.90833e-014
lhumerus 53.8213 27.1472 13.0155
lradius 43.9571
lwrist 10.0868
lhand -47.0614 97.2242
lfingers 7.12502
lthumb -19.7663 -68.2092
rfemur -24.9734 -18.4886 1.35413
rtibia 64.8056
rfoot -17.0564 -29.2152
rtoes 9.65937
lfemur -44.623 30.0197 51.5343
ltibia 6.46212
lfoot -28.3283 45.6229
ltoes 21.2885
289
root -3.58493 16.7397 9.69502 53.1406 66.7009 -99.8464
lowerback 9.94084 1.31994 2.45641
upperback -4.55932 2.05717 -0.879863
thorax -10.3769 0.793445 -2.71605
lowerneck -41.915 -3.3975 -13.8452
upperneck 4.12425 1.15095 15.1129
head 7.2832 2.39087 7.96793
rclavicle 6.99722e-014 -2.22639e-014
rhumerus 65.7971 -35.8386 8.73381
rradius 27.9102
rwrist 19.5735
rhand -33.7974 -66.7945
rfingers 7.12502
rthumb -6.98401 -1343.34
lclavicle 6.99722e-014 -2.22639e-014
lhumerus 53.8317 26.6464 12.0058
lradius 43.7568
lwrist 10.2362
lhand -46.9651 95.5144
lfingers 7.12502
lthumb -19.6737 -66.4899
rfemur -23.02 -16.4599 2.15339
rtibia 63.1648
rfoot -15.3655 -29.666
rtoes 6.84177
lfemur -42.6672 31.7476 51.9953
ltibia -2.54444e-014
lfoot -22.9142 46.1659
ltoes 20.7645
290
root -3.68671 16.6944 9.49377 54.9535 66.2967 -97.4062
lowerback 9.956 1.14459 2.63315
upperback -4.62716 1.81457 -1.18259
thorax -10.4631 0.647786 -3.10006
lowerneck -41.2024 -2.91654 -13.1242
upperneck 4.46309 1.22738 15.2259
head 7.32214 2.41505 7.89199
rclavicle -1.38354e-013 -2.54444e-014
rhumerus 64.3024 -36.4613 8.73041
rradius 28.408
rwrist 18.0771
rhand -33.3869 -64.9995
rfingers 7.12502
rthumb -6.58772 -1345.12
lclavicle -1.38354e-013 -2.54444e-014
lhumerus 54.234 26.095 11.6413
lradius 43.3958
lwrist 11.0229
lhand -47.5765 97.5551
lfingers 7.12502
lthumb -20.2615 -68.5919
rfemur -21.477 -14.219 3.1441
rtibia 61.9198
rfoot -12.8627 -30.2541
rtoes 2.08838
lfemur -44.3816 33.4484 52.1151
ltibia -9.54166e-015
lfoot -21.007 45.5935
ltoes 19.222
291
root -3.78525 16.646 9.28958 57.2018 65.4163 -94.3733
lowerback 10.0523 1.02822 2.20652
upperback -4.60784 1.55584 -1.55479
thorax -10.5173 0.533914 -3.21614
lowerneck -40.9156 -2.57195 -13.2712
upperneck 5.1567 1.55704 15.8386
head 7.51592 2.61889 8.20541
rclavicle 2.22639e-014 -2.22639e-014
rhumerus 62.5184 -37.2211 9.07588
rradius 28.7422
rwrist 16.9647
rhand -32.7023 -64.5665
rfingers 7.12502
rthumb -5.92678 -1345.54
lclavicle 2.22639e-014 -2.22639e-014
lhumerus 54.7689 25.7122 11.5864
lradius 43.0267
lwrist 11.6709
lhand -49.2989 103.545
lfingers 7.12502
lthumb -21.9161 -74.766
rfemur -20.1743 -12.0225 3.54668
rtibia 61.0436
rfoot -13.3275 -29.9958
rtoes 3.77844
lfemur -46.1168 34.9357 51.4853
ltibia 3.49861e-014
lfoot -20.1513 44.4471
ltoes 18.5199
292
root -3.88727 16.5926 9.07413 59.5781 64.5647 -91.1799
lowerback 10.1882 0.890565 1.68978
upperback -4.61326 1.25991 -1.8815
thorax -10.6281 0.409537 -3.22659
lowerneck -39.8519 -1.9902 -11.5541
upperneck 4.87511 1.40341 15.1362
head 7.32324 2.45618 7.57544
rclavicle 1.51076e-013 4.45278e-014
rhumerus 60.567 -37.9429 9.77063
rradius 28.6191
rwrist 16.4484
rhand -31.792 -65.3638
rfingers 7.12502
rthumb -5.04788 -1344.72
lclavicle 1.51076e-013 4.45278e-014
lhumerus 55.4003 25.3886 11.8913
lradius 42.6488
lwrist 11.6759
lhand -49.8948 104.849
lfingers 7.12502
lthumb -22.4881 -76.1382
rfemur -19.3552 -11.0108 4.37338
rtibia 60.8398
rfoot -11.6687 -30.6559
rtoes 1.59573
lfemur -48.1363 36.2608 50.5085
ltibia 3.81667e-014
lfoot -20.2494 43.2937
ltoes 19.4896
293
root -3.98926 16.5339 8.86141 61.8545 63.4576 -87.97
lowerback 10.396 0.575902 1.44043
upperback -4.55727 0.722759 -2.60083
thorax -10.7234 0.134403 -3.76871
lowerneck -38.9887 -1.23884 -9.61852
upperneck 4.6323 1.42264 14.7435
head 7.1501 2.43658 7.07202
rclavicle 4.13472e-014 3.81667e-014
rhumerus 59.0447 -38.8924 9.17822
rradius 28.3109
rwrist 16.6851
rhand -31.5007 -66.2094
rfingers 7.12502
rthumb -4.76657 -1343.86
lclavicle 4.13472e-014 3.81667e-014
lhumerus 55.7658 25.1331 11.2135
lradius 42.4309
lwrist 12.3551
lhand -50.2726 105.934
lfingers 7.12502
lthumb -22.8507 -77.2677
rfemur -18.653 -10.1372 5.01263
rtibia 60.9953
rfoot -11.8166 -30.7244
rtoes 2.57058
lfemur -50.1169 37.3573 49.1025
ltibia -1.145e-013
lfoot -20.5523 42.2595
ltoes 21.1282
294
root -4.09336 16.4697 8.64806 63.7051 62.316 -85.1958
lowerback 10.5013 0.517407 0.728429
upperback -4.39882 0.514658 -2.82936
thorax -10.6284 0.0769816 -3.57087
lowerneck -38.3366 -0.752258 -8.18285
upperneck 4.40059 1.4282 13.9576
head 6.99005 2.35122 6.51373
rclavicle 1.17681e-013 3.49861e-014
rhumerus 57.3527 -40.0775 9.51147
rradius 28.0668
rwrist 16.8114
rhand -31.7743 -66.9123
rfingers 7.12502
rthumb -5.03077 -1343.17
lclavicle 1.17681e-013 3.49861e-014
lhumerus 56.1535 24.9927 11.5561
lradius 42.1655
lwrist 12.9855
lhand -50.864 107.26
lfingers 7.12502
lthumb -23.4182 -78.6645
rfemur -18.1556 -9.29536 5.67248
rtibia 61.4302
rfoot -15.4313 -29.5528
rtoes 9.91572
lfemur -52.0832 38.3792 47.6397
ltibia -3.81667e-014
lfoot -19.871 41.6477
ltoes 21.4795
295
root -4.20158 16.4007 8.42761 65.3654 61.2065 -82.6362
lowerback 10.6237 0.329923 0.362418
upperback -4.26551 0.171453 -3.19391
thorax -10.578 -0.0763523 -3.69232
lowerneck -39.1879 -0.3268 -8.13244
upperneck 5.76389 1.88922 14.1342
head 7.50852 2.62951 6.71981
rclavicle 1.47896e-013 0
rhumerus 55.5926 -41.2129 9.60284
rradius 27.9518
rwrist 16.6502
rhand -31.4135 -67.8011
rfingers 7.12502
rthumb -4.68239 -1342.27
lclavicle 1.47896e-013 0
lhumerus 56.1087 24.8271 11.245
lradius 41.9457
lwrist 13.1277
lhand -51.0986 108.098
lfingers 7.12502
lthumb -23.6432 -79.5322
rfemur -18.0188 -9.57158 6.83263
rtibia 62.0822
rfoot -13.0193 -30.429
rtoes 4.96311
lfemur -54.2352 39.3189 46.0422
ltibia 1.24042e-013
lfoot -18.2556 41.4345
ltoes 20.8971
296
root -4.30231 16.3292 8.21375 66.9701 59.7064 -80.0144
lowerback 10.8438 0.211915 -0.344463
upperback -4.11909 -0.136472 -3.6087
thorax -10.5687 -0.191947 -3.68283
lowerneck -39.1427 0.372109 -6.56976
upperneck 6.22922 2.14381 13.096
head 7.63752 2.66555 6.13473
rclavicle 3.02153e-014 -3.81667e-014
rhumerus 53.6159 -42.2988 9.99315
rradius 28.1243
rwrist 16.6666
rhand -29.8974 -68.0235
rfingers 7.12502
rthumb -3.21838 -1342.02
lclavicle 3.02153e-014 -3.81667e-014
lhumerus 55.9938 24.5525 10.7628
lradius 41.3615
lwrist 13.3175
lhand -51.1202 111.302
lfingers 7.12502
lthumb -23.6639 -82.7388
rfemur -17.9152 -9.83691 7.54492
rtibia 62.7186
rfoot -11.6462 -30.5107
rtoes 2.23321
lfemur -56.3579 40.026 43.9031
ltibia 6.36111e-015
lfoot -15.9271 41.1774
ltoes 19.6687
